<svg id="Layer_1" data-name="Layer 1" xmlns="http://www.w3.org/2000/svg" viewBox="0 0 1075.49 140"><defs><style>.cls-1{fill:#1f8bd5;}.cls-2{fill:#172751;}</style></defs><title>logo-reputation-pro</title><path class="cls-1" d="M89.59,86.63a5.54,5.54,0,0,1-.64-.46,38.67,38.67,0,1,1,6.15-9.22l.33.18,20.88,12.83V21.73A19.41,19.41,0,0,0,97,2.37H21.45A19.41,19.41,0,0,0,2.1,21.73v75.5a19.41,19.41,0,0,0,19.36,19.36H97a19.42,19.42,0,0,0,18.59-14Z"/><path class="cls-1" d="M60.17,30.9A29.73,29.73,0,1,0,89.91,60.63,29.73,29.73,0,0,0,60.17,30.9ZM81.27,55.32a2,2,0,0,1-.55,1.08l-8.56,8.35,2,11.81a2,2,0,0,1-.8,2,2,2,0,0,1-1.18.37,2,2,0,0,1-.93-.23L60.69,73.12,50.11,78.69a2,2,0,0,1-2.92-2.12l2-11.78-8.56-8.38A2,2,0,0,1,41.77,53l11.83-1.73,5.3-10.68a2,2,0,0,1,3.6,0l5.3,10.72L79.61,53A2,2,0,0,1,81.27,55.32Z"/><path class="cls-2" d="M161.62,69.66H150V96.3H134.2V22H169c15.49,0,25,10.14,25,24,0,13.15-8.25,20.17-16.27,22.07L194.39,96.3H176.23Zm5-34.11H150V56.06h16.61c6.35,0,11.15-4,11.15-10.25S173,35.55,166.64,35.55Z"/><path class="cls-2" d="M205.87,22h52.61v13.6H221.7V51.72h36v13.6h-36V82.59h36.78V96.3H205.87Z"/><path class="cls-2" d="M270.85,22h34.78c16.16,0,25,10.92,25,24s-8.92,23.74-25,23.74H286.68V96.3H270.85Zm32.66,13.6H286.68V56.06h16.83c6.24,0,10.92-4,10.92-10.25S309.75,35.55,303.51,35.55Z"/><path class="cls-2" d="M340.4,22h16.05V66.1c0,10.37,5.68,17.5,17.28,17.5,11.37,0,17.05-7.13,17.05-17.5V22h16.05V66.54c0,18.5-10.59,31.1-33.1,31.1-22.74,0-33.33-12.71-33.33-31Z"/><path class="cls-2" d="M438.7,35.89H417V22h59.3V35.89H454.64V96.3H438.7Z"/><path class="cls-2" d="M526.64,83.48H493.43L488.75,96.3H471.36L500.12,22H520L548.6,96.3H531.33Zm-29-13.71H522.3L510,35.67Z"/><path class="cls-2" d="M565.54,35.89H543.81V22h59.3V35.89H581.48V96.3H565.54Z"/><path class="cls-2" d="M613.24,22h15.83V96.3H613.24Z"/><path class="cls-2" d="M679,20.73c22.52,0,38.9,16.05,38.9,38.46S701.52,97.64,679,97.64s-38.79-16.05-38.79-38.46S656.6,20.73,679,20.73Zm0,14c-13.71,0-22.52,10.48-22.52,24.41S665.29,83.6,679,83.6,701.63,73,701.63,59.19,692.71,34.77,679,34.77Z"/><path class="cls-2" d="M744.87,46.37V96.3H729V22h16.27l34.44,48.15V22h15.83V96.3H780.32Z"/><path class="cls-1" d="M810.3,22h34.78c16.16,0,25,10.92,25,24s-8.92,23.74-25,23.74H826.12V96.3H810.3ZM843,35.55H826.12V56.06H843c6.24,0,10.92-4,10.92-10.25S849.2,35.55,843,35.55Z"/><path class="cls-1" d="M907.26,69.66H895.67V96.3H879.84V22h34.78c15.49,0,25,10.14,25,24,0,13.15-8.25,20.17-16.27,22.07L940,96.3H921.87Zm5-34.11H895.67V56.06h16.61c6.35,0,11.15-4,11.15-10.25S918.63,35.55,912.28,35.55Z"/><path class="cls-1" d="M986.73,20.73c22.52,0,38.9,16.05,38.9,38.46s-16.39,38.46-38.9,38.46-38.79-16.05-38.79-38.46S964.33,20.73,986.73,20.73Zm0,14c-13.71,0-22.52,10.48-22.52,24.41S973,83.6,986.73,83.6s22.63-10.59,22.63-24.41S1000.44,34.77,986.73,34.77Z"/></svg>