<svg xmlns="http://www.w3.org/2000/svg" viewBox="0 0 268.66 48.83"><title>Asset 1</title><g id="Layer_2" data-name="Layer 2"><g id="Layer_1-2" data-name="Layer 1"><path d="M140.3,13.2c-.2.3-.1.5-.1.8V45c0,.6-.1.8-.8.8H133c-.6,0-.7-.1-.7-.7V1.4c0-.5.1-.8.7-.7h6.9a.81.81,0,0,1,.8.4c4.3,6,8.7,12,13,18.1L163,32.1c.1.1.1.2.3.2V1.5c0-.8,0-.8.8-.8h6.4c.5,0,.6.1.6.6V45.1c0,.5-.2.6-.6.6h-6.4a.87.87,0,0,1-.9-.5c-3.5-5-7.1-9.9-10.6-14.8l-12-16.8a1.87,1.87,0,0,1-.3-.4Z" style="fill:#0ac1e6"/><path d="M187.1,23.3V38.2c0,.5.1.7.7.7h7.6a25.61,25.61,0,0,0,3.9-.3,14.13,14.13,0,0,0,11.1-9.7,18.72,18.72,0,0,0,.6-9.1,14.63,14.63,0,0,0-3.2-6.9,14.1,14.1,0,0,0-10.6-5c-3.1-.1-6.3,0-9.4-.1-.6,0-.7.2-.7.7.1,4.9,0,9.8,0,14.8Zm-7.9,0V1.5c0-.6.2-.7.8-.7h16.6A23.94,23.94,0,0,1,211.8,6a20.69,20.69,0,0,1,7.1,11.7,22.46,22.46,0,0,1,.6,6.3c-.2,6.4-2.3,11.9-7.2,16.2a22.82,22.82,0,0,1-11.1,5.2,38.92,38.92,0,0,1-6.8.5H180c-1,0-.8.1-.8-.9V23.3Z" style="fill:#0ac1e6"/><path d="M230.8,23.4a18.61,18.61,0,0,0,.7,5.2,14.57,14.57,0,0,0,5.1,7.9c3.4,2.7,7.4,3.4,11.7,2.8a13.15,13.15,0,0,0,8.5-4.8,16.92,16.92,0,0,0,3.8-11,20.24,20.24,0,0,0-.7-5.5A14.31,14.31,0,0,0,243.5,7.3a13.44,13.44,0,0,0-9.2,5.3c-2.5,3.1-3.4,6.8-3.5,10.8ZM246.2,0a22.53,22.53,0,0,1,12.6,3.7,21.64,21.64,0,0,1,9.1,13.2,24.88,24.88,0,0,1,.7,7.7,23,23,0,0,1-6,14.9A21,21,0,0,1,250.8,46a26.44,26.44,0,0,1-13.1-.6,21.57,21.57,0,0,1-7.4-4.1,22,22,0,0,1-7.6-14.5,24.55,24.55,0,0,1,1.4-12.6A21.23,21.23,0,0,1,238.4,1a27.78,27.78,0,0,1,7.8-1Z" style="fill:#0ac1e6"/><path d="M100.2,30h15.9c.3,0,.6.1.6-.5,0-2.9.1-5.8.2-8.7.1-2.3.1-4.6.1-6.9,0-1.2,0-2.3.1-3.5.1-1,0-2,0-3.1-5.6,7.6-11.2,15.1-16.9,22.7ZM80,45.6c1.4-1.9,2.7-3.6,4-5.4,2.8-3.8,5.7-7.5,8.5-11.3,5.7-7.5,11.3-15,17-22.5,1.3-1.7,2.6-3.5,4-5.2a.81.81,0,0,1,.8-.4h10.3c.5,0,.6.2.6.6,0,3.5.1,7.1,0,10.6-.1,5.8,0,11.6-.1,17.4V44.9c0,.5-.1.7-.7.7h-7.1c-.5,0-.6-.1-.6-.6V37.6c0-.5-.1-.6-.6-.6H96.3a.81.81,0,0,0-.8.4c-1.8,2.5-3.7,5.1-5.5,7.6a1.31,1.31,0,0,1-1.2.6H80Z" style="fill:#0ac1e6"/><path d="M20.6,20.1H.8c-.6,0-.7-.1-.7-.7V12.7c0-.4.1-.6.6-.6H40.5c.5,0,.6.1.6.6v6.8c0,.5-.2.6-.6.6Z" style="fill:#0ac1e6"/><path d="M20.5,30.6H.7c-.6,0-.7-.2-.7-.7V23.3c0-.5.1-.7.6-.7H40.2c.5,0,.6.2.6.7V30c0,.5-.2.6-.7.6Z" style="fill:#0ac1e6"/><path d="M66.5,14.9v6.3c0,1-.1.9.8.9h9.5a12.75,12.75,0,0,0,2-.1,7,7,0,0,0,5.4-10.1c-1.3-2.8-3.8-3.9-6.7-4-3.5-.1-6.9,0-10.4,0-.5,0-.6.2-.6.6v6.4Zm-8,8.4V1.5c0-.5.1-.7.7-.7H78.7A13.78,13.78,0,0,1,88.9,4.7a13.31,13.31,0,0,1,3.9,7.6,14.59,14.59,0,0,1-1.4,9.4,13.18,13.18,0,0,1-9.8,7,18,18,0,0,1-4,.3H67.1c-.5,0-.7.2-.7.7V45.1c0,.6-.1.7-.7.7H59.1c-.5,0-.7-.1-.7-.6.1-7.3.1-14.6.1-21.9Z" style="fill:#0ac1e6"/><path d="M20.6,33H40.4c.6,0,.7.2.7.7a7.9,7.9,0,0,1-.8,4.3A6.27,6.27,0,0,1,35,41.5a1,1,0,0,0-.9.4c-2.8,2.2-5.6,4.4-8.4,6.7-.1.1-.2.3-.4.2s-.1-.3-.1-.5v-6c0-.6-.1-.7-.7-.7H7A6.62,6.62,0,0,1,.2,34.8c0-.6-.3-1.3.1-1.7s1,0,1.6,0C8.1,33,14.4,33,20.6,33Z" style="fill:#0ac1e6"/><path d="M20.6,9.7H.9c-.6,0-.8-.2-.8-.8A9.56,9.56,0,0,1,.9,4.2,6.53,6.53,0,0,1,6.6.8H34.7A6.46,6.46,0,0,1,41,6.5c.1.9,0,1.9.1,2.8,0,.3-.1.4-.4.4H20.6Z" style="fill:#0ac1e6"/></g></g></svg>