<svg xmlns="http://www.w3.org/2000/svg" viewBox="0 0 509.6 114.85"><title>Asset 1</title><g id="Layer_2" data-name="Layer 2"><g id="Layer_1-2" data-name="Layer 1"><g id="Artwork_19" data-name="Artwork 19"><path d="M58.27,24.06c-.54-.34-1-.62-1.44-.86V17a17,17,0,0,0-17-17H36.7a17,17,0,0,0-17,17V23.2c-.42.24-.9.52-1.43.86-2.19,1.37-3.36,3.44-2.62,4.62l.05.07,4-2.51V62.15A11.18,11.18,0,0,0,30.89,73.33H45.65A11.17,11.17,0,0,0,56.83,62.15V26.24l4,2.51.05-.07C61.62,27.5,60.45,25.43,58.27,24.06Zm-20-.47c9.84.08,12.5,2.54,12.5,2.54L46.22,31.7s-2.23-1-7.95-1.08-8,1.08-8,1.08l-4.55-5.57S28.43,23.67,38.27,23.59ZM25.88,6.94C27.47,5.42,29.31,4.78,30,5.49s0,2.53-1.63,4S25,11.71,24.26,11,24.3,8.46,25.88,6.94Zm-1,24.37,2.94,3.31V45.37l-2.94,5Zm13.37,28.2c-9.21,0-12.76-3.28-12.76-3.28l4.79-8.29h16L51,56.23S47.49,59.46,38.27,59.51Zm13.37-9.14-2.93-5V34.62l2.93-3.31ZM52.28,11c-.69.72-2.53.07-4.11-1.45s-2.31-3.33-1.62-4,2.53-.07,4.11,1.45S53,10.27,52.28,11Z" style="fill:#192751"/><path d="M1.57,102.24c-.87,0-1.57-.49-1.57-1.09V9C0,8.44.7,8,1.57,8S3.14,8.44,3.14,9v92.11C3.14,101.75,2.44,102.24,1.57,102.24Z" style="fill:#192751"/><path d="M75,102.24c-.87,0-1.57-.49-1.57-1.09V9C73.4,8.44,74.1,8,75,8s1.57.48,1.57,1.08v92.11C76.54,101.75,75.84,102.24,75,102.24Z" style="fill:#192751"/><rect x="34.61" y="82.75" width="6.45" height="32.1" rx="3.22" style="fill:#2a88c9"/><rect x="23.24" y="82.75" width="6.45" height="23.8" rx="2.78" style="fill:#2a88c9"/><rect x="45.99" y="82.75" width="6.45" height="23.8" rx="3.18" style="fill:#2a88c9"/><path d="M130.36,70.89,120,96.19H119L108.6,70.89v25.3h-2.43V67.69h3.63l9.7,23.63,9.66-23.63h3.68v28.5h-2.48Z" style="fill:#192751"/><path d="M171.48,89.18H156.3l-2.86,7h-2.73l11.66-28.5h3l11.67,28.5h-2.74ZM157.07,87h13.64l-6.84-16.88Z" style="fill:#192751"/><path d="M197.38,71.57V96.19H195V67.69h2.47L215.29,92V67.69h2.44v28.5h-2.4Z" style="fill:#192751"/><path d="M256.37,89.18H241.19l-2.86,7h-2.74l11.67-28.5h3L262,96.19h-2.74ZM242,87H255.6l-6.84-16.88Z" style="fill:#192751"/><path d="M291.54,67.22a13.53,13.53,0,0,1,10.73,4.87l-1.84,1.32a11.6,11.6,0,0,0-8.89-4c-6.71,0-11.88,5.08-11.88,12.52s5.17,12.57,11.88,12.57a12.13,12.13,0,0,0,8.38-3.46V84.23H289.15V82.05h13.21V92a14.4,14.4,0,0,1-10.82,4.74c-8,0-14.44-6-14.44-14.79S283.55,67.22,291.54,67.22Z" style="fill:#192751"/><path d="M322.24,67.69h18.08v2.22H324.67V80.46H340v2.23H324.67V94h15.65v2.22H322.24Z" style="fill:#192751"/><path d="M384.21,70.89l-10.38,25.3h-.94l-10.43-25.3v25.3H360V67.69h3.63l9.71,23.63L383,67.69h3.67v28.5h-2.48Z" style="fill:#192751"/><path d="M407.47,67.69h18.08v2.22H409.9V80.46h15.35v2.23H409.9V94h15.65v2.22H407.47Z" style="fill:#192751"/><path d="M447.69,71.57V96.19h-2.44V67.69h2.48L465.6,92V67.69H468v28.5h-2.39Z" style="fill:#192751"/><path d="M496.07,69.91h-9.31V67.69h21.11v2.22h-9.32V96.19h-2.48Z" style="fill:#192751"/><path d="M110.85,42.28a16.28,16.28,0,0,0,11.88,5.1c4.37,0,6.5-2.09,6.5-4.25,0-2.83-3.25-3.79-7.56-4.81-6.11-1.41-14-3.11-14-11.55,0-6.28,5.38-11.38,14.18-11.38,5.94,0,10.87,1.81,14.57,5.27L132,26.54a15.84,15.84,0,0,0-10.7-4.13c-3.59,0-5.49,1.59-5.49,3.85,0,2.55,3.13,3.34,7.45,4.36,6.16,1.42,14,3.28,14,11.66,0,6.91-4.88,12.12-15,12.12-7.18,0-12.33-2.43-15.81-6Z" style="fill:#2a88c9"/><path d="M144.92,16h26.45v6.9H152.88v8.21H171V38h-18.1v8.78h18.49v7H144.92Z" style="fill:#2a88c9"/><path d="M193.63,40.19H187.8V53.72h-8V16h17.48c7.79,0,12.56,5.15,12.56,12.17,0,6.68-4.15,10.25-8.19,11.21l8.41,14.38H201Zm2.52-17.33H187.8V33.28h8.35c3.19,0,5.6-2,5.6-5.21S199.34,22.86,196.15,22.86Z" style="fill:#2a88c9"/><path d="M213.58,16h9.08L233,45l10.31-29h9.07L238,53.72H228Z" style="fill:#2a88c9"/><path d="M258.13,16h8V53.72h-8Z" style="fill:#2a88c9"/><path d="M273.94,34.87c0-11.61,8.68-19.54,19.61-19.54a17.24,17.24,0,0,1,15.92,9.23L302.63,28a10.22,10.22,0,0,0-9.08-5.49c-6.5,0-11.43,5.26-11.43,12.4s4.93,12.4,11.43,12.4a10.12,10.12,0,0,0,9.08-5.5l6.84,3.35a17.33,17.33,0,0,1-15.92,9.28C282.62,54.4,273.94,46.47,273.94,34.87Z" style="fill:#2a88c9"/><path d="M316.47,16h26.46v6.9h-18.5v8.21h18.1V38h-18.1v8.78h18.5v7H316.47Z" style="fill:#2a88c9"/><path d="M368,16h8V46.64h15.8v7.08H368Z" style="fill:#2a88c9"/><path d="M399.53,16H426v6.9H407.49v8.21h18.1V38h-18.1v8.78H426v7H399.53Z" style="fill:#2a88c9"/><path d="M458.27,47.21h-16.7l-2.36,6.51h-8.74L444.93,16h10l14.41,37.76h-8.69Zm-14.57-7h12.38l-6.16-17.33Z" style="fill:#2a88c9"/><path d="M475,16h14.73c11.72,0,19.84,7.53,19.84,18.91s-8.12,18.85-19.84,18.85H475Zm14.73,30.68c7.4,0,11.72-5.37,11.72-11.77,0-6.68-4-11.84-11.72-11.84H483V46.64Z" style="fill:#2a88c9"/></g></g></g></svg>