<svg xmlns="http://www.w3.org/2000/svg" xmlns:xlink="http://www.w3.org/1999/xlink" viewBox="0 0 1403.36 310.21"><defs><style>.cls-1{fill:none;}.cls-2{clip-path:url(#clip-path);}.cls-3{fill:#172751;}.cls-4{clip-path:url(#clip-path-2);}.cls-5{fill:#34699e;}</style><clipPath id="clip-path" transform="translate(0 -0.36)"><rect class="cls-1" width="1403.36" height="309.84"/></clipPath><clipPath id="clip-path-2" transform="translate(0 -0.36)"><rect class="cls-1" width="1403.36" height="309.84"/></clipPath></defs><title>logo-intelligentmarketing</title><g id="Layer_2" data-name="Layer 2"><g id="Layer_1-2" data-name="Layer 1"><g id="Logo_1-2-1_Blue"><g class="cls-2"><rect class="cls-3" x="13.1" y="235.36" width="18.96" height="73.53"/><polygon class="cls-3" points="97.41 235.36 97.41 277.69 67.64 235.36 48.13 235.36 48.13 308.89 67.09 308.89 67.09 264.46 98.18 308.89 116.48 308.89 116.48 235.36 97.41 235.36"/><polygon class="cls-3" points="126.25 235.36 126.25 251.89 146.87 251.89 146.87 308.89 165.83 308.89 165.83 251.89 186.34 251.89 186.34 235.36 126.25 235.36"/><polygon class="cls-3" points="196.11 235.36 196.11 308.89 250.02 308.89 250.02 292.9 215.07 292.9 215.07 279.68 249.25 279.68 249.25 263.58 215.07 263.58 215.07 251.34 250.02 251.34 250.02 235.36 196.11 235.36"/><polygon class="cls-3" points="264.84 235.36 264.84 308.89 313.35 308.89 313.35 292.35 283.8 292.35 283.8 235.36 264.84 235.36"/><polygon class="cls-3" points="323.45 235.36 323.45 308.89 371.96 308.89 371.96 292.35 342.41 292.35 342.41 235.36 323.45 235.36"/><rect class="cls-3" x="382.05" y="235.36" width="18.96" height="73.53"/><g class="cls-4"><path class="cls-3" d="M453,234.5c16.1,0,26,7.94,31.42,17.09L468.51,260A18.28,18.28,0,0,0,453,251.26c-12,0-20.51,9.26-20.51,21.28s8.49,21.28,20.51,21.28c5.73,0,10.92-2,13.9-4.41v-6.18H450V267.47h35.5v28.77A42.49,42.49,0,0,1,453,310.58c-21.94,0-39.8-14.67-39.8-38s17.86-38,39.8-38" transform="translate(0 -0.36)"/><polygon class="cls-3" points="499.88 235.36 553.79 235.36 553.79 251.34 518.84 251.34 518.84 263.58 553.01 263.58 553.01 279.68 518.84 279.68 518.84 292.9 553.79 292.9 553.79 308.89 499.88 308.89 499.88 235.36"/><polygon class="cls-3" points="587.57 264.46 587.57 308.89 568.61 308.89 568.61 235.36 588.12 235.36 617.89 277.69 617.89 235.36 636.96 235.36 636.96 308.89 618.66 308.89 587.57 264.46"/><polygon class="cls-3" points="667.35 251.89 646.74 251.89 646.74 235.36 706.82 235.36 706.82 251.89 686.32 251.89 686.32 308.89 667.35 308.89 667.35 251.89"/><polygon class="cls-3" points="814.08 259.28 795.45 308.89 787.07 308.89 768.55 259.28 768.55 308.89 749.59 308.89 749.59 235.36 775.94 235.36 791.26 277.03 806.7 235.36 833.05 235.36 833.05 308.89 814.08 308.89 814.08 259.28"/><path class="cls-3" d="M896.05,298.11H865.51l-3.75,11.14H841.15l27.67-73.53h23.81l27.78,73.53H899.79Zm-25.58-16h20.62l-10.37-29.88Z" transform="translate(0 -0.36)"/><path class="cls-3" d="M957.12,284.34h-9.7v24.91h-19V235.72h36.82c16.32,0,25.58,10.8,25.58,24.47,0,12.79-7.84,19.63-14.67,22.05l15,27H969.46Zm5.29-32.64h-15v16.54h15c5,0,9.15-3.2,9.15-8.27s-4.19-8.27-9.15-8.27" transform="translate(0 -0.36)"/><polygon class="cls-3" points="1027.8 281.22 1022.84 287.39 1022.84 308.89 1003.88 308.89 1003.88 235.36 1022.84 235.36 1022.84 265.56 1045.44 235.36 1068.82 235.36 1040.26 269.75 1070.36 308.89 1047.09 308.89 1027.8 281.22"/><polygon class="cls-3" points="1078.46 235.36 1132.37 235.36 1132.37 251.34 1097.42 251.34 1097.42 263.58 1131.6 263.58 1131.6 279.68 1097.42 279.68 1097.42 292.9 1132.37 292.9 1132.37 308.89 1078.46 308.89 1078.46 235.36"/><polygon class="cls-3" points="1161.62 251.89 1141 251.89 1141 235.36 1201.09 235.36 1201.09 251.89 1180.58 251.89 1180.58 308.89 1161.62 308.89 1161.62 251.89"/><rect class="cls-3" x="1210.86" y="235.36" width="18.96" height="73.54"/><polygon class="cls-3" points="1264.84 264.46 1264.84 308.89 1245.88 308.89 1245.88 235.36 1265.39 235.36 1295.16 277.69 1295.16 235.36 1314.23 235.36 1314.23 308.89 1295.93 308.89 1264.84 264.46"/><path class="cls-3" d="M1366.19,234.5c16.1,0,26,7.94,31.41,17.09L1381.73,260a18.27,18.27,0,0,0-15.54-8.71c-12,0-20.51,9.26-20.51,21.28s8.49,21.28,20.51,21.28c5.73,0,10.91-2,13.89-4.41v-6.18h-16.87V267.47h35.5v28.77a42.49,42.49,0,0,1-32.52,14.34c-21.94,0-39.8-14.67-39.8-38s17.86-38,39.8-38" transform="translate(0 -0.36)"/><path class="cls-3" d="M97.43.36c55.69,0,97.15,38.76,97.15,94.16s-41.46,94.16-97.15,94.16S0,149.93,0,94.52,41.74.36,97.43.36m0,41.48c-30.29,0-49.67,22.94-49.67,52.68,0,29.48,19.38,52.68,49.67,52.68,30,0,49.41-23.2,49.41-52.68,0-29.74-19.38-52.68-49.41-52.68" transform="translate(0 -0.36)"/><polygon class="cls-3" points="254.85 75.06 254.85 185.05 207.9 185.05 207.9 3.01 256.23 3.01 329.91 107.81 329.91 3.01 377.12 3.01 377.12 185.05 331.82 185.05 254.85 75.06"/><polygon class="cls-3" points="405.12 3.01 538.58 3.01 538.58 42.59 452.05 42.59 452.05 72.88 536.66 72.88 536.66 112.72 452.05 112.72 452.05 145.47 524.57 145.47 511.91 185.05 405.12 185.05 405.12 3.01"/><path class="cls-3" d="M962.21.36c55.68,0,97.17,38.76,97.17,94.16s-41.49,94.16-97.17,94.16c-44.91,0-80.76-25.21-93-64.05l34.44-107C919.76,6.6,939.86.36,962.21.36m0,41.48c-30.3,0-49.68,22.94-49.68,52.68,0,29.48,19.38,52.68,49.68,52.68,30,0,49.41-23.2,49.41-52.68,0-29.74-19.38-52.68-49.41-52.68" transform="translate(0 -0.36)"/><polygon class="cls-3" points="1119.63 75.06 1119.63 185.05 1072.7 185.05 1072.7 3.01 1121.01 3.01 1194.69 107.81 1194.69 3.01 1241.9 3.01 1241.9 185.05 1196.6 185.05 1119.63 75.06"/><polygon class="cls-3" points="1269.89 3.01 1403.36 3.01 1403.36 42.59 1316.83 42.59 1316.83 72.88 1401.43 72.88 1401.43 112.72 1316.83 112.72 1316.83 145.47 1403.36 145.47 1403.36 185.05 1269.89 185.05 1269.89 3.01"/><path class="cls-5" d="M586,3.48,528.44,185.33h307.4L893.41,3.48ZM686.82,87.41H668.17v26.72c0,10,9.58,11.39,15.27,11.39a21.21,21.21,0,0,0,3.38-.18v25.88a27,27,0,0,1-6.59.52c-14.14,0-40-3.8-40-33.64V87.41h-14V64.1h14V40.78h28V64.1h18.65Zm62.53,65.53c-27.94,0-50.36-18.45-50.36-46.22C699,78.78,721.41,60,749.18,60c28.11,0,50.53,18.8,50.53,46.74,0,27.77-22.42,46.22-50.36,46.22" transform="translate(0 -0.36)"/><path class="cls-5" d="M749.35,84.82c-10.86,0-20.18,8.45-20.18,21.9,0,13.28,9.32,21.39,20.18,21.39s20.18-8.11,20.18-21.39c0-13.45-9.31-21.9-20.18-21.9" transform="translate(0 -0.36)"/></g></g></g></g></g></svg>